<svg width="134" height="137" viewBox="0 0 134 137" fill="none" xmlns="http://www.w3.org/2000/svg">
<path d="M107.89 103.35C113.652 112.421 116.368 117.238 116.368 122.262C116.368 132.184 108.999 136.994 99.0711 136.994C94.6951 136.994 91.8704 136.989 84.7313 133.275C84.7313 133.275 80.1056 129.042 69.2806 129.477C58.3546 129.045 53.7261 133.328 53.7261 133.328C46.5871 137.039 43.8633 137 39.4929 137C29.5655 137 22.1908 132.195 22.1908 122.267C22.1908 117.243 24.9146 112.433 30.6735 103.355C30.6735 103.355 41.5603 85.2761 50.9939 76.7709C57.8104 70.6333 67.749 70.6557 67.749 70.6557H70.815C70.815 70.6557 81.1884 70.6277 87.5785 76.7709C96.7204 85.5847 107.89 103.352 107.89 103.35ZM45.0274 58.5656C55.4064 58.5656 63.819 45.4544 63.819 29.2828C63.819 13.1112 55.4064 0 45.0274 0C34.6484 0 26.2358 13.1112 26.2358 29.2828C26.2358 45.4544 34.6484 58.5656 45.0274 58.5656ZM27.0184 86.9255C34.668 83.3939 36.4128 70.8717 30.912 58.9555C25.4111 47.0393 14.7516 40.2397 7.10198 43.7685C-0.547618 47.2974 -2.28961 59.8223 3.20846 71.7385C8.70933 83.6547 19.3688 90.4516 27.0184 86.9255ZM88.7174 58.5656C99.0964 58.5656 107.512 45.4544 107.512 29.2828C107.512 13.1112 99.0964 0 88.7174 0C78.3384 0 69.9258 13.1112 69.9258 29.2828C69.9258 45.4544 78.3384 58.5656 88.7174 58.5656ZM126.646 43.7657C118.993 40.234 108.336 47.0337 102.836 58.9527C97.3348 70.8717 99.0795 83.3939 106.732 86.9255C114.384 90.4544 125.041 83.6547 130.542 71.7385C136.043 59.8223 134.298 47.2974 126.646 43.7657Z" fill="#9EDAE2"/>
</svg>
