<svg id="visual" viewBox="0 0 900 600" width="900" height="600" xmlns="http://www.w3.org/2000/svg" xmlns:xlink="http://www.w3.org/1999/xlink" version="1.1"><path d="M0 530L9.3 525.3C18.7 520.7 37.3 511.3 56.2 516.2C75 521 94 540 112.8 548.8C131.7 557.7 150.3 556.3 169 553.3C187.7 550.3 206.3 545.7 225 544.5C243.7 543.3 262.3 545.7 281.2 540C300 534.3 319 520.7 337.8 513.2C356.7 505.7 375.3 504.3 394 513.8C412.7 523.3 431.3 543.7 450 542.8C468.7 542 487.3 520 506.2 516.3C525 512.7 544 527.3 562.8 531.3C581.7 535.3 600.3 528.7 619 521.2C637.7 513.7 656.3 505.3 675 513.2C693.7 521 712.3 545 731.2 546.3C750 547.7 769 526.3 787.8 520.2C806.7 514 825.3 523 844 527.3C862.7 531.7 881.3 531.3 890.7 531.2L900 531L900 601L890.7 601C881.3 601 862.7 601 844 601C825.3 601 806.7 601 787.8 601C769 601 750 601 731.2 601C712.3 601 693.7 601 675 601C656.3 601 637.7 601 619 601C600.3 601 581.7 601 562.8 601C544 601 525 601 506.2 601C487.3 601 468.7 601 450 601C431.3 601 412.7 601 394 601C375.3 601 356.7 601 337.8 601C319 601 300 601 281.2 601C262.3 601 243.7 601 225 601C206.3 601 187.7 601 169 601C150.3 601 131.7 601 112.8 601C94 601 75 601 56.2 601C37.3 601 18.7 601 9.3 601L0 601Z" fill="#ffffff" stroke-linecap="round" stroke-linejoin="miter"></path></svg>